HIERARCHY
ROOT Character1_Hips
{
	OFFSET 0.000000 86.858185 1.182688
	CHANNELS 6 Xposition Yposition Zposition Xrotation Yrotation Zrotation
	JOINT Character1_LeftUpLeg
	{
		OFFSET 7.276832 -6.057800 0.207883
		CHANNELS 6 Xposition Yposition Zposition Xrotation Yrotation Zrotation
		JOINT Character1_LeftLeg
		{
			OFFSET -1.823140 -35.110466 -1.568847
			CHANNELS 6 Xposition Yposition Zposition Xrotation Yrotation Zrotation
			JOINT Character1_LeftFoot
			{
				OFFSET -1.031196 -37.817070 -1.726818
				CHANNELS 6 Xposition Yposition Zposition Xrotation Yrotation Zrotation
				JOINT Character1_LeftToeBase
				{
					OFFSET 0.202457 -5.287532 8.122427
					CHANNELS 6 Xposition Yposition Zposition Xrotation Yrotation Zrotation
					End Site
					{
						OFFSET 0.009223 0.000047 9.693953
					}
				}
			}
		}
	}
	JOINT Character1_RightUpLeg
	{
		OFFSET -7.276832 -6.057770 0.207879
		CHANNELS 6 Xposition Yposition Zposition Xrotation Yrotation Zrotation
		JOINT Character1_RightLeg
		{
			OFFSET 1.823196 -35.109627 -1.587624
			CHANNELS 6 Xposition Yposition Zposition Xrotation Yrotation Zrotation
			JOINT Character1_RightFoot
			{
				OFFSET 1.031267 -37.817833 -1.710079
				CHANNELS 6 Xposition Yposition Zposition Xrotation Yrotation Zrotation
				JOINT Character1_RightToeBase
				{
					OFFSET -0.202449 -5.287759 8.122276
					CHANNELS 6 Xposition Yposition Zposition Xrotation Yrotation Zrotation
					End Site
					{
						OFFSET 0.001154 -0.000006 9.693956
					}
				}
			}
		}
	}
	JOINT Character1_Spine
	{
		OFFSET -0.000001 2.271347 0.818150
		CHANNELS 6 Xposition Yposition Zposition Xrotation Yrotation Zrotation
		JOINT Character1_Spine1
		{
			OFFSET -0.000001 9.085945 0.955446
			CHANNELS 6 Xposition Yposition Zposition Xrotation Yrotation Zrotation
			JOINT Character1_Spine2
			{
				OFFSET -0.000002 8.765564 -0.142866
				CHANNELS 6 Xposition Yposition Zposition Xrotation Yrotation Zrotation
				JOINT Character1_LeftShoulder
				{
					OFFSET 4.211487 11.612236 -3.873799
					CHANNELS 6 Xposition Yposition Zposition Xrotation Yrotation Zrotation
					JOINT Character1_LeftArm
					{
						OFFSET 5.543700 0.000031 -0.000005
						CHANNELS 6 Xposition Yposition Zposition Xrotation Yrotation Zrotation
						JOINT Character1_LeftForeArm
						{
							OFFSET 23.377409 -0.123474 0.033367
							CHANNELS 6 Xposition Yposition Zposition Xrotation Yrotation Zrotation
							JOINT Character1_LeftHand
							{
								OFFSET 16.247719 -0.118858 0.035829
								CHANNELS 6 Xposition Yposition Zposition Xrotation Yrotation Zrotation
								JOINT Character1_LeftHandThumb1
								{
									OFFSET 2.510399 -0.904045 2.091601
									CHANNELS 6 Xposition Yposition Zposition Xrotation Yrotation Zrotation
									JOINT Character1_LeftHandThumb2
									{
										OFFSET 2.570465 -1.130470 1.584520
										CHANNELS 6 Xposition Yposition Zposition Xrotation Yrotation Zrotation
										JOINT Character1_LeftHandThumb3
										{
											OFFSET 1.420841 -0.605858 0.842600
											CHANNELS 6 Xposition Yposition Zposition Xrotation Yrotation Zrotation
											JOINT Character1_LeftHandThumb4
											{
												OFFSET 2.153469 -0.757797 1.312965
												CHANNELS 6 Xposition Yposition Zposition Xrotation Yrotation Zrotation
												End Site
												{
													OFFSET 2.158772 -0.733734 1.317914
												}
											}
										}
									}
								}
								JOINT Character1_LeftHandIndex1
								{
									OFFSET 8.043888 0.989311 2.480770
									CHANNELS 6 Xposition Yposition Zposition Xrotation Yrotation Zrotation
									JOINT Character1_LeftHandIndex2
									{
										OFFSET 2.427021 0.011856 0.268371
										CHANNELS 6 Xposition Yposition Zposition Xrotation Yrotation Zrotation
										JOINT Character1_LeftHandIndex3
										{
											OFFSET 1.609932 0.007866 0.037315
											CHANNELS 6 Xposition Yposition Zposition Xrotation Yrotation Zrotation
											JOINT Character1_LeftHandIndex4
											{
												OFFSET 2.130016 0.049431 0.114431
												CHANNELS 6 Xposition Yposition Zposition Xrotation Yrotation Zrotation
												End Site
												{
													OFFSET 2.119099 0.211617 -0.131005
												}
											}
										}
									}
								}
								JOINT Character1_LeftHandMiddle1
								{
									OFFSET 8.038177 1.007423 0.439338
									CHANNELS 6 Xposition Yposition Zposition Xrotation Yrotation Zrotation
									JOINT Character1_LeftHandMiddle2
									{
										OFFSET 2.527046 -0.234444 -0.080977
										CHANNELS 6 Xposition Yposition Zposition Xrotation Yrotation Zrotation
										JOINT Character1_LeftHandMiddle3
										{
											OFFSET 1.931313 -0.179352 -0.117768
											CHANNELS 6 Xposition Yposition Zposition Xrotation Yrotation Zrotation
											JOINT Character1_LeftHandMiddle4
											{
												OFFSET 2.196999 0.041229 -0.161456
												CHANNELS 6 Xposition Yposition Zposition Xrotation Yrotation Zrotation
												End Site
												{
													OFFSET 2.197571 -0.071640 -0.141814
												}
											}
										}
									}
								}
								JOINT Character1_LeftHandRing1
								{
									OFFSET 7.662090 0.616508 -1.366725
									CHANNELS 6 Xposition Yposition Zposition Xrotation Yrotation Zrotation
									JOINT Character1_LeftHandRing2
									{
										OFFSET 2.249855 -0.592636 -0.461933
										CHANNELS 6 Xposition Yposition Zposition Xrotation Yrotation Zrotation
										JOINT Character1_LeftHandRing3
										{
											OFFSET 1.521790 -0.400856 -0.248318
											CHANNELS 6 Xposition Yposition Zposition Xrotation Yrotation Zrotation
											JOINT Character1_LeftHandRing4
											{
												OFFSET 2.446365 -0.396080 -0.528466
												CHANNELS 6 Xposition Yposition Zposition Xrotation Yrotation Zrotation
												End Site
												{
													OFFSET 2.437840 -0.527443 -0.446790
												}
											}
										}
									}
								}
								JOINT Character1_LeftHandPinky1
								{
									OFFSET 6.585136 -0.139000 -2.766160
									CHANNELS 6 Xposition Yposition Zposition Xrotation Yrotation Zrotation
									JOINT Character1_LeftHandPinky2
									{
										OFFSET 1.631428 -0.600632 -0.502815
										CHANNELS 6 Xposition Yposition Zposition Xrotation Yrotation Zrotation
										JOINT Character1_LeftHandPinky3
										{
											OFFSET 1.227242 -0.468956 -0.457904
											CHANNELS 6 Xposition Yposition Zposition Xrotation Yrotation Zrotation
											JOINT Character1_LeftHandPinky4
											{
												OFFSET 1.696033 -0.584229 -0.687828
												CHANNELS 6 Xposition Yposition Zposition Xrotation Yrotation Zrotation
												End Site
												{
													OFFSET 1.705387 -0.567787 -0.678411
												}
											}
										}
									}
								}
							}
						}
					}
				}
				JOINT Character1_RightShoulder
				{
					OFFSET -4.211487 11.612236 -3.873799
					CHANNELS 6 Xposition Yposition Zposition Xrotation Yrotation Zrotation
					JOINT Character1_RightArm
					{
						OFFSET -5.543744 0.000023 -0.000004
						CHANNELS 6 Xposition Yposition Zposition Xrotation Yrotation Zrotation
						JOINT Character1_RightForeArm
						{
							OFFSET -23.377581 -0.123566 0.033386
							CHANNELS 6 Xposition Yposition Zposition Xrotation Yrotation Zrotation
							JOINT Character1_RightHand
							{
								OFFSET -16.247574 -0.118851 0.036247
								CHANNELS 6 Xposition Yposition Zposition Xrotation Yrotation Zrotation
								JOINT Character1_RightHandThumb1
								{
									OFFSET -2.510384 -0.904091 2.091566
									CHANNELS 6 Xposition Yposition Zposition Xrotation Yrotation Zrotation
									JOINT Character1_RightHandThumb2
									{
										OFFSET -2.579426 -1.121681 1.537416
										CHANNELS 6 Xposition Yposition Zposition Xrotation Yrotation Zrotation
										JOINT Character1_RightHandThumb3
										{
											OFFSET -1.429546 -0.616760 0.819528
											CHANNELS 6 Xposition Yposition Zposition Xrotation Yrotation Zrotation
											JOINT Character1_RightHandThumb4
											{
												OFFSET -2.167622 -0.774658 1.279505
												CHANNELS 6 Xposition Yposition Zposition Xrotation Yrotation Zrotation
												End Site
												{
													OFFSET -2.137974 -0.606712 1.413074
												}
											}
										}
									}
								}
								JOINT Character1_RightHandIndex1
								{
									OFFSET -8.043800 0.988876 2.481294
									CHANNELS 6 Xposition Yposition Zposition Xrotation Yrotation Zrotation
									JOINT Character1_RightHandIndex2
									{
										OFFSET -2.426987 0.011948 0.268470
										CHANNELS 6 Xposition Yposition Zposition Xrotation Yrotation Zrotation
										JOINT Character1_RightHandIndex3
										{
											OFFSET -1.609989 0.007927 0.037374
											CHANNELS 6 Xposition Yposition Zposition Xrotation Yrotation Zrotation
											JOINT Character1_RightHandIndex4
											{
												OFFSET -2.129982 0.049034 0.114512
												CHANNELS 6 Xposition Yposition Zposition Xrotation Yrotation Zrotation
												End Site
												{
													OFFSET -2.123772 0.204735 0.006035
												}
											}
										}
									}
								}
								JOINT Character1_RightHandMiddle1
								{
									OFFSET -8.038174 1.006859 0.439860
									CHANNELS 6 Xposition Yposition Zposition Xrotation Yrotation Zrotation
									JOINT Character1_RightHandMiddle2
									{
										OFFSET -2.526997 -0.234062 -0.080875
										CHANNELS 6 Xposition Yposition Zposition Xrotation Yrotation Zrotation
										JOINT Character1_RightHandMiddle3
										{
											OFFSET -1.931465 -0.179070 -0.117694
											CHANNELS 6 Xposition Yposition Zposition Xrotation Yrotation Zrotation
											JOINT Character1_RightHandMiddle4
											{
												OFFSET -2.196987 0.042816 -0.161370
												CHANNELS 6 Xposition Yposition Zposition Xrotation Yrotation Zrotation
												End Site
												{
													OFFSET -2.184029 -0.187660 -0.222307
												}
											}
										}
									}
								}
								JOINT Character1_RightHandRing1
								{
									OFFSET -7.662136 0.615837 -1.366219
									CHANNELS 6 Xposition Yposition Zposition Xrotation Yrotation Zrotation
									JOINT Character1_RightHandRing2
									{
										OFFSET -2.249901 -0.592049 -0.461829
										CHANNELS 6 Xposition Yposition Zposition Xrotation Yrotation Zrotation
										JOINT Character1_RightHandRing3
										{
											OFFSET -1.521889 -0.400475 -0.248259
											CHANNELS 6 Xposition Yposition Zposition Xrotation Yrotation Zrotation
											JOINT Character1_RightHandRing4
											{
												OFFSET -2.446423 -0.395401 -0.528361
												CHANNELS 6 Xposition Yposition Zposition Xrotation Yrotation Zrotation
												End Site
												{
													OFFSET -2.430859 -0.503899 -0.507441
												}
											}
										}
									}
								}
								JOINT Character1_RightHandPinky1
								{
									OFFSET -6.585262 -0.139153 -2.765680
									CHANNELS 6 Xposition Yposition Zposition Xrotation Yrotation Zrotation
									JOINT Character1_RightHandPinky2
									{
										OFFSET -1.631413 -0.601036 -0.502742
										CHANNELS 6 Xposition Yposition Zposition Xrotation Yrotation Zrotation
										JOINT Character1_RightHandPinky3
										{
											OFFSET -1.227207 -0.469040 -0.457860
											CHANNELS 6 Xposition Yposition Zposition Xrotation Yrotation Zrotation
											JOINT Character1_RightHandPinky4
											{
												OFFSET -1.696110 -0.584045 -0.687750
												CHANNELS 6 Xposition Yposition Zposition Xrotation Yrotation Zrotation
												End Site
												{
													OFFSET -1.689350 -0.584435 -0.703875
												}
											}
										}
									}
								}
							}
						}
					}
				}
				JOINT Character1_Neck
				{
					OFFSET -0.000001 15.167763 -4.080687
					CHANNELS 6 Xposition Yposition Zposition Xrotation Yrotation Zrotation
					JOINT Character1_Head
					{
						OFFSET -0.000001 7.825302 -0.202157
						CHANNELS 6 Xposition Yposition Zposition Xrotation Yrotation Zrotation
						JOINT J_R_HairTail_00
						{
							OFFSET -6.209000 2.264816 -7.399083
							CHANNELS 6 Xposition Yposition Zposition Xrotation Yrotation Zrotation
							End Site
							{
								OFFSET -2.180591 -11.067337 -2.694725
							}
						}
					}
				}
				JOINT J_R_Mune_00
				{
					OFFSET -2.925001 2.684891 0.061887
					CHANNELS 6 Xposition Yposition Zposition Xrotation Yrotation Zrotation
					JOINT J_R_Mune_01
					{
						OFFSET -7.794388 2.801010 16.635391
						CHANNELS 6 Xposition Yposition Zposition Xrotation Yrotation Zrotation
						JOINT J_R_Mune_02
						{
							OFFSET 6.838630 -2.377007 -14.605499
							CHANNELS 6 Xposition Yposition Zposition Xrotation Yrotation Zrotation
							End Site
							{
								OFFSET -14.795670 -0.834061 -6.791919
							}
						}
					}
				}
				JOINT J_L_Mune_00
				{
					OFFSET 2.925019 2.684776 0.061883
					CHANNELS 6 Xposition Yposition Zposition Xrotation Yrotation Zrotation
					JOINT J_L_Mune_01
					{
						OFFSET 7.794374 2.801254 16.635433
						CHANNELS 6 Xposition Yposition Zposition Xrotation Yrotation Zrotation
						JOINT J_L_Mune_02
						{
							OFFSET -6.838619 -2.376648 -14.605538
							CHANNELS 3 Xrotation Yrotation Zrotation
							End Site
							{
								OFFSET 14.795649 -0.834076 -6.791907
							}
						}
					}
				}
			}
		}
	}
}
MOTION
Frames: 3
Frame Time: 0.033333
4.303312 86.362724 5.770289 -1.392385 7.683592 0.398907 7.276834 -6.057794 0.207884 6.075976 -12.637669 4.119675 -1.823138 -35.110458 -1.568847 4.740503 16.998736 0.092950 -1.031195 -37.817066 -1.726822 -7.927287 0.902002 -5.970176 0.202459 -5.287532 8.122425 0.000015 0.000205 -0.000811 -7.276832 -6.057772 0.207878 1.206559 0.224249 -10.127115 1.823196 -35.109619 -1.587621 3.365533 -0.555355 0.571100 1.031263 -37.817825 -1.710082 -2.963059 -0.749855 9.375913 -0.202448 -5.287759 8.122274 0.000082 -0.000269 -0.000501 -0.000002 2.271324 0.818149 -0.000001 -0.000110 0.000234 -0.000001 9.085948 0.955447 -3.694351 -1.432475 0.048501 -0.000002 8.765561 -0.142866 3.373625 0.071629 1.218589 4.211487 11.612251 -3.873802 0.000119 -0.000326 -2.457623 5.543688 0.000037 -0.000007 22.533306 -4.635014 -69.762972 23.377422 -0.123480 0.033361 -13.699132 -20.184686 -1.986570 16.247725 -0.118848 0.035829 3.688685 -5.481344 14.902682 2.510412 -0.904051 2.091606 -2.573564 -1.715396 7.431982 2.570467 -1.130463 1.584518 4.641382 14.920108 2.293045 1.420836 -0.605855 0.842591 5.373719 23.291319 2.709243 2.153472 -0.757808 1.312962 -0.000499 0.001075 -0.006116 8.043904 0.989297 2.480772 3.066873 13.710538 1.532283 2.427019 0.011860 0.268370 0.423090 -0.045453 -18.415542 1.609949 0.007857 0.037316 1.369412 0.272023 -24.433154 2.130011 0.049436 0.114430 -0.003263 -0.004248 -0.000856 8.038180 1.007422 0.439340 -0.329472 1.965117 -5.254584 2.527048 -0.234433 -0.080975 -1.320227 0.340372 -23.304792 1.931324 -0.179341 -0.117771 -2.195009 0.974638 -33.186240 2.197000 0.041220 -0.161456 -0.003110 -0.003973 0.001110 7.662095 0.616510 -1.366726 -11.465068 -5.992384 -0.178480 2.249866 -0.592642 -0.461926 -0.738291 1.112428 -28.733940 1.521800 -0.400860 -0.248315 -6.831700 4.426366 -25.212445 2.446362 -0.396077 -0.528467 -0.003466 -0.001529 0.000914 6.585147 -0.139004 -2.766160 -6.188475 -18.307871 5.996252 1.631428 -0.600637 -0.502822 -3.494327 1.741877 -11.170057 1.227235 -0.468942 -0.457901 -10.862921 8.683093 -35.889335 1.696038 -0.584231 -0.687830 -0.000625 -0.000229 -0.000177 -4.211487 11.612225 -3.873802 0.000182 0.000213 -0.000111 -5.543736 0.000020 -0.000005 18.379431 -6.256582 69.698747 -23.377583 -0.123559 0.033383 -21.251669 15.838010 2.483288 -16.247566 -0.118838 0.036244 18.813162 -3.705501 -1.482646 -2.510384 -0.904110 2.091567 -7.055435 -0.039645 -13.731438 -2.579432 -1.121668 1.537413 6.117546 -19.520460 -2.673356 -1.429542 -0.616757 0.819534 7.326713 -30.564823 -3.014736 -2.167623 -0.774667 1.279515 0.009686 0.003667 -0.006376 -8.043803 0.988877 2.481293 2.009578 -9.925509 11.498788 -2.426991 0.011961 0.268468 0.065924 -0.000521 28.213964 -1.610008 0.007912 0.037375 0.000522 -0.000319 5.297878 -2.129978 0.049039 0.114511 -0.000992 -0.008771 0.004772 -8.038185 1.006860 0.439861 1.626912 0.054732 4.583872 -2.527015 -0.234057 -0.080877 -1.121526 -0.261266 37.373306 -1.931440 -0.179068 -0.117693 -1.771914 -1.184830 47.582619 -2.196997 0.042808 -0.161370 -0.000872 -0.002791 -0.003681 -7.662132 0.615842 -1.366222 -0.911324 14.831817 6.673643 -2.249897 -0.592029 -0.461830 -0.411878 -0.168574 26.029955 -1.521873 -0.400476 -0.248253 -4.277542 -1.878611 44.397251 -2.446430 -0.395391 -0.528365 0.004870 0.001009 0.007295 -6.585258 -0.139158 -2.765691 -20.673436 14.545258 1.425895 -1.631422 -0.601036 -0.502741 -4.387759 -2.335323 14.215206 -1.227210 -0.469046 -0.457857 -10.411727 -11.507488 39.806868 -1.696099 -0.584062 -0.687744 0.004175 0.003779 -0.005339 -0.000001 15.167769 -4.080690 2.506148 -3.196703 -2.737825 -0.000001 7.825328 -0.202157 2.510292 -3.097552 -2.829120 -6.208996 2.264812 -7.399086 -0.198281 -1.366448 5.780211 -2.925001 2.684891 0.061883 -0.000002 -0.000000 -0.000000 -7.794388 2.800994 16.635387 0.000001 -0.000001 -0.000000 6.838631 -2.376999 -14.605500 0.000001 0.000000 -0.000000 2.925019 2.684791 0.061878 0.000002 0.000000 -0.000001 7.794372 2.801255 16.635429 -0.000001 -0.000002 0.000000 0.000000 0.000004 0.000001 
3.488822 83.164886 3.395031 5.218472 5.501174 -0.374967 7.276832 -6.057801 0.207880 -19.192599 -12.577969 1.356078 -1.823138 -35.110462 -1.568850 36.917073 13.559140 -1.892110 -1.031193 -37.817066 -1.726822 -21.716445 2.464100 -7.890639 0.202457 -5.287532 8.122425 0.000021 0.000241 -0.000834 -7.276831 -6.057777 0.207883 -24.061226 7.402077 -8.311447 1.823197 -35.109615 -1.587614 35.058487 0.086709 0.986106 1.031262 -37.817825 -1.710085 -16.131597 -2.114393 9.145280 -0.202449 -5.287760 8.122278 0.000069 -0.000234 -0.000506 -0.000001 2.271339 0.818150 -4.114264 0.458550 0.164991 -0.000001 9.085949 0.955447 5.061899 -1.395700 0.157454 -0.000002 8.765565 -0.142867 7.901708 0.120250 1.208587 4.211488 11.612244 -3.873796 0.000073 -0.000277 -2.457603 5.543691 0.000042 -0.000005 20.124567 1.111714 -68.719749 23.377405 -0.123479 0.033366 -14.160246 -32.277138 -4.623541 16.247709 -0.118854 0.035830 4.236793 -9.178082 13.553694 2.510408 -0.904042 2.091606 -2.573584 -1.715448 7.431955 2.570473 -1.130471 1.584522 4.641446 14.920101 2.293019 1.420836 -0.605848 0.842592 5.373720 23.291362 2.709237 2.153476 -0.757802 1.312965 -0.000548 0.001090 -0.006099 8.043891 0.989306 2.480772 3.066899 13.710543 1.532293 2.427038 0.011853 0.268371 0.423065 -0.045447 -18.415505 1.609937 0.007865 0.037314 1.369388 0.272016 -24.433135 2.130028 0.049446 0.114429 -0.003244 -0.004237 -0.001115 8.038175 1.007432 0.439341 -0.329484 1.965112 -5.254587 2.527048 -0.234432 -0.080974 -1.320187 0.340364 -23.304774 1.931305 -0.179334 -0.117772 -2.195045 0.974628 -33.186134 2.196991 0.041226 -0.161456 -0.003144 -0.003964 0.001107 7.662091 0.616507 -1.366722 -11.465016 -5.992383 -0.178538 2.249865 -0.592647 -0.461925 -0.738357 1.112449 -28.734107 1.521808 -0.400858 -0.248312 -6.831706 4.426367 -25.212417 2.446353 -0.396090 -0.528466 -0.003459 -0.001542 0.000921 6.585144 -0.138984 -2.766155 -6.188480 -18.307887 5.996270 1.631426 -0.600635 -0.502817 -3.494353 1.741900 -11.170137 1.227236 -0.468960 -0.457898 -10.862908 8.683132 -35.889273 1.696014 -0.584232 -0.687827 -0.000557 -0.000248 -0.000228 -4.211488 11.612237 -3.873798 0.000123 0.000235 -0.000090 -5.543736 0.000024 -0.000006 16.072839 -6.781215 68.901220 -23.377583 -0.123564 0.033381 -23.501964 38.152883 11.012714 -16.247572 -0.118847 0.036244 17.884891 -2.161970 -4.022391 -2.510393 -0.904099 2.091566 -7.055397 -0.039705 -13.731580 -2.579427 -1.121682 1.537413 6.117608 -19.520500 -2.673249 -1.429547 -0.616765 0.819538 7.326781 -30.564717 -3.014713 -2.167624 -0.774656 1.279508 0.009743 0.003623 -0.006361 -8.043808 0.988872 2.481294 2.009631 -9.925547 11.498718 -2.426995 0.011948 0.268469 0.065830 -0.000650 28.213992 -1.609984 0.007926 0.037374 0.000558 -0.000359 5.297893 -2.129985 0.049042 0.114510 -0.000929 -0.008711 0.004663 -8.038167 1.006877 0.439861 1.626727 0.054911 4.583735 -2.527005 -0.234061 -0.080875 -1.121266 -0.262157 37.373480 -1.931464 -0.179060 -0.117691 -1.771615 -1.184488 47.582516 -2.196994 0.042809 -0.161372 -0.000755 -0.002776 -0.003727 -7.662128 0.615831 -1.366220 -0.911281 14.831728 6.673587 -2.249904 -0.592040 -0.461833 -0.411878 -0.168591 26.029957 -1.521875 -0.400469 -0.248253 -4.277494 -1.878652 44.397141 -2.446427 -0.395396 -0.528363 0.004862 0.001017 0.007314 -6.585265 -0.139143 -2.765692 -20.673314 14.545267 1.425675 -1.631422 -0.601032 -0.502742 -4.387785 -2.335188 14.215237 -1.227202 -0.469040 -0.457865 -10.411796 -11.507578 39.806711 -1.696117 -0.584050 -0.687753 0.004163 0.003756 -0.005281 -0.000001 15.167749 -4.080684 2.291524 -3.178246 -2.764567 -0.000001 7.825304 -0.202156 2.524268 -3.098229 -2.828496 -6.208997 2.264823 -7.399084 0.643410 -1.413759 5.559548 -2.925003 2.684891 0.061888 -0.000000 -0.000002 0.000000 -7.794385 2.801018 16.635384 0.000001 -0.000002 0.000001 6.838630 -2.377014 -14.605497 -0.000001 0.000003 -0.000001 2.925018 2.684784 0.061884 0.000001 0.000002 -0.000000 7.794374 2.801255 16.635431 -0.000002 0.000002 0.000000 0.000001 0.000006 -0.000000 
2.517424 76.269981 0.764151 12.462204 3.004875 -0.796583 7.276833 -6.057802 0.207885 -42.633573 -12.430780 -2.192654 -1.823140 -35.110466 -1.568851 63.223270 11.884848 -0.564550 -1.031195 -37.817062 -1.726823 -32.636621 4.407429 -10.145621 0.202458 -5.287531 8.122424 0.000014 0.000181 -0.000850 -7.276832 -6.057759 0.207883 -48.530280 13.253899 -3.556638 1.823196 -35.109619 -1.587618 61.092265 0.613270 0.842226 1.031264 -37.817829 -1.710087 -25.954026 -3.417936 9.714844 -0.202448 -5.287760 8.122276 -0.000001 -0.000304 -0.000513 -0.000001 2.271353 0.818151 -8.733787 1.395517 0.377270 -0.000001 9.085942 0.955444 14.765339 -1.329052 0.404867 -0.000003 8.765561 -0.142869 12.887457 0.232126 1.188886 4.211487 11.612246 -3.873802 0.000093 -0.000283 -2.457586 5.543699 0.000022 0.000001 16.530163 7.102373 -67.015945 23.377403 -0.123473 0.033368 -19.448265 -57.129365 -13.313208 16.247719 -0.118851 0.035826 4.762304 -13.194679 12.117718 2.510405 -0.904058 2.091596 -2.573619 -1.715497 7.432017 2.570474 -1.130472 1.584508 4.641403 14.920113 2.293038 1.420849 -0.605872 0.842591 5.373738 23.291375 2.709249 2.153475 -0.757815 1.312968 -0.000524 0.001078 -0.006145 8.043887 0.989310 2.480764 3.066919 13.710613 1.532245 2.427024 0.011864 0.268372 0.423143 -0.045413 -18.415594 1.609934 0.007867 0.037314 1.369394 0.271682 -24.432990 2.130015 0.049430 0.114433 -0.003490 -0.004156 -0.001108 8.038172 1.007416 0.439330 -0.329452 1.965133 -5.254506 2.527045 -0.234448 -0.080976 -1.320390 0.340273 -23.304742 1.931321 -0.179347 -0.117770 -2.194922 0.974576 -33.186257 2.196991 0.041224 -0.161455 -0.003306 -0.003889 0.001103 7.662088 0.616495 -1.366737 -11.465048 -5.992422 -0.178421 2.249864 -0.592632 -0.461925 -0.738404 1.112312 -28.734063 1.521800 -0.400850 -0.248315 -6.831688 4.426442 -25.212400 2.446365 -0.396071 -0.528466 -0.003498 -0.001544 0.000936 6.585133 -0.138993 -2.766161 -6.188473 -18.307943 5.996358 1.631421 -0.600651 -0.502823 -3.494353 1.741916 -11.170154 1.227243 -0.468957 -0.457917 -10.862921 8.683039 -35.889325 1.696029 -0.584224 -0.687826 -0.000622 -0.000227 -0.000301 -4.211487 11.612246 -3.873801 0.000095 0.000236 0.000000 -5.543740 0.000011 -0.000002 13.261917 -7.176229 67.893002 -23.377590 -0.123565 0.033389 -38.631488 61.881056 27.846533 -16.247559 -0.118850 0.036250 16.965049 -0.448043 -6.739461 -2.510392 -0.904109 2.091559 -7.055195 -0.039931 -13.731467 -2.579430 -1.121681 1.537421 6.117663 -19.520537 -2.673260 -1.429540 -0.616764 0.819534 7.326789 -30.564758 -3.014693 -2.167607 -0.774651 1.279505 0.009709 0.003624 -0.006415 -8.043811 0.988875 2.481293 2.009503 -9.925563 11.498738 -2.426994 0.011960 0.268468 0.066067 -0.001487 28.214074 -1.610008 0.007923 0.037373 0.000619 -0.000458 5.297922 -2.129968 0.049039 0.114507 -0.000975 -0.008430 0.004692 -8.038178 1.006866 0.439861 1.626960 0.054711 4.583831 -2.526993 -0.234059 -0.080874 -1.121400 -0.262269 37.373453 -1.931454 -0.179075 -0.117693 -1.771289 -1.184698 47.582591 -2.196990 0.042802 -0.161372 -0.000662 -0.002639 -0.003733 -7.662140 0.615835 -1.366221 -0.911257 14.830941 6.673757 -2.249894 -0.592038 -0.461833 -0.411761 -0.168783 26.030049 -1.521876 -0.400471 -0.248255 -4.276950 -1.878412 44.397483 -2.446415 -0.395381 -0.528369 0.004904 0.001087 0.007239 -6.585272 -0.139155 -2.765686 -20.673024 14.544990 1.425680 -1.631417 -0.601046 -0.502733 -4.387906 -2.335152 14.215318 -1.227211 -0.469050 -0.457860 -10.411840 -11.507660 39.806650 -1.696109 -0.584040 -0.687753 0.004231 0.003763 -0.005319 -0.000002 15.167767 -4.080691 1.863881 -3.141150 -2.817756 0.000000 7.825295 -0.202162 2.539423 -3.098938 -2.827650 -6.208998 2.264813 -7.399091 1.485023 -1.464310 5.339576 -2.925002 2.684883 0.061881 0.000000 0.000002 0.000000 -7.794385 2.801003 16.635389 -0.000001 -0.000001 -0.000001 6.838631 -2.376991 -14.605495 0.000001 0.000002 -0.000001 2.925018 2.684792 0.061880 0.000001 0.000004 -0.000000 7.794374 2.801270 16.635424 -0.000002 0.000002 0.000000 -0.000000 0.000006 -0.000001 
